<?xml version="1.0" encoding="UTF-8" standalone="no"?>
<!DOCTYPE svg PUBLIC "-//W3C//DTD SVG 1.1//EN"
 "http://www.w3.org/Graphics/SVG/1.1/DTD/svg11.dtd">
<!-- Generated by graphviz version 12.2.1 (20241206.2353)
 -->
<!-- Pages: 1 -->
<svg width="78pt" height="432pt"
 viewBox="0.00 0.00 77.85 432.00" xmlns="http://www.w3.org/2000/svg" xmlns:xlink="http://www.w3.org/1999/xlink">
<g id="graph0" class="graph" transform="scale(0.153791 0.153791) rotate(0) translate(4 2805)">
<polygon fill="white" stroke="none" points="-4,4 -4,-2805 502.21,-2805 502.21,4 -4,4"/>
<!-- start_1 -->
<g id="node1" class="node">
<title>start_1</title>
<ellipse fill="lightgreen" stroke="black" cx="370.68" cy="-2783" rx="84.94" ry="18"/>
<text text-anchor="middle" x="370.68" y="-2779.5" font-family="Arial" font-size="10.00">Start: create_enhanced_note</text>
</g>
<!-- try_2 -->
<g id="node2" class="node">
<title>try_2</title>
<polygon fill="lightpink" stroke="black" points="399.68,-2728 341.68,-2728 341.68,-2692 399.68,-2692 399.68,-2728"/>
<text text-anchor="middle" x="370.68" y="-2706.5" font-family="Arial" font-size="10.00">Try Block</text>
</g>
<!-- start_1&#45;&gt;try_2 -->
<g id="edge1" class="edge">
<title>start_1&#45;&gt;try_2</title>
<path fill="none" stroke="black" d="M370.68,-2764.81C370.68,-2757.23 370.68,-2748.1 370.68,-2739.54"/>
<polygon fill="black" stroke="black" points="374.18,-2739.54 370.68,-2729.54 367.18,-2739.54 374.18,-2739.54"/>
</g>
<!-- decision_3 -->
<g id="node3" class="node">
<title>decision_3</title>
<polygon fill="lightblue" stroke="black" points="370.68,-2655 310.51,-2637 370.68,-2619 430.84,-2637 370.68,-2655"/>
<text text-anchor="middle" x="370.68" y="-2633.5" font-family="Arial" font-size="10.00">If: note_type</text>
</g>
<!-- try_2&#45;&gt;decision_3 -->
<g id="edge2" class="edge">
<title>try_2&#45;&gt;decision_3</title>
<path fill="none" stroke="black" d="M370.68,-2691.81C370.68,-2684.23 370.68,-2675.1 370.68,-2666.54"/>
<polygon fill="black" stroke="black" points="374.18,-2666.54 370.68,-2656.54 367.18,-2666.54 374.18,-2666.54"/>
</g>
<!-- try_4 -->
<g id="node4" class="node">
<title>try_4</title>
<polygon fill="lightpink" stroke="black" points="399.68,-2582 341.68,-2582 341.68,-2546 399.68,-2546 399.68,-2582"/>
<text text-anchor="middle" x="370.68" y="-2560.5" font-family="Arial" font-size="10.00">Try Block</text>
</g>
<!-- decision_3&#45;&gt;try_4 -->
<g id="edge3" class="edge">
<title>decision_3&#45;&gt;try_4</title>
<path fill="none" stroke="black" d="M370.68,-2618.81C370.68,-2611.23 370.68,-2602.1 370.68,-2593.54"/>
<polygon fill="black" stroke="black" points="374.18,-2593.54 370.68,-2583.54 367.18,-2593.54 374.18,-2593.54"/>
</g>
<!-- decision_5 -->
<g id="node5" class="node">
<title>decision_5</title>
<polygon fill="lightblue" stroke="black" points="370.68,-2509 283.72,-2491 370.68,-2473 457.63,-2491 370.68,-2509"/>
<text text-anchor="middle" x="370.68" y="-2487.5" font-family="Arial" font-size="10.00">If: enhance_content</text>
</g>
<!-- try_4&#45;&gt;decision_5 -->
<g id="edge4" class="edge">
<title>try_4&#45;&gt;decision_5</title>
<path fill="none" stroke="black" d="M370.68,-2545.81C370.68,-2538.23 370.68,-2529.1 370.68,-2520.54"/>
<polygon fill="black" stroke="black" points="374.18,-2520.54 370.68,-2510.54 367.18,-2520.54 374.18,-2520.54"/>
</g>
<!-- decision_6 -->
<g id="node6" class="node">
<title>decision_6</title>
<polygon fill="lightblue" stroke="black" points="203.68,-2416 88.66,-2398 203.68,-2380 318.69,-2398 203.68,-2416"/>
<text text-anchor="middle" x="203.68" y="-2394.5" font-family="Arial" font-size="10.00">If: len(final_content) &gt; 2000</text>
</g>
<!-- decision_5&#45;&gt;decision_6 -->
<g id="edge7" class="edge">
<title>decision_5&#45;&gt;decision_6</title>
<path fill="none" stroke="black" d="M347.45,-2477.35C319.23,-2461.97 271.33,-2435.87 238.64,-2418.05"/>
<polygon fill="black" stroke="black" points="240.39,-2415.02 229.93,-2413.31 237.04,-2421.17 240.39,-2415.02"/>
</g>
<!-- true_5 -->
<g id="node37" class="node">
<title>true_5</title>
<ellipse fill="none" stroke="black" cx="370.68" cy="-2398" rx="34.46" ry="18"/>
<text text-anchor="middle" x="370.68" y="-2392.95" font-family="Times,serif" font-size="14.00">true_5</text>
</g>
<!-- decision_5&#45;&gt;true_5 -->
<g id="edge5" class="edge">
<title>decision_5&#45;&gt;true_5</title>
<path fill="none" stroke="green" d="M370.68,-2472.88C370.68,-2460.13 370.68,-2442.42 370.68,-2427.53"/>
<polygon fill="green" stroke="green" points="374.18,-2427.86 370.68,-2417.86 367.18,-2427.86 374.18,-2427.86"/>
<text text-anchor="middle" x="381.55" y="-2446.45" font-family="Arial" font-size="9.00">True</text>
<text text-anchor="middle" x="381.55" y="-2435.95" font-family="Arial" font-size="9.00">(true)</text>
</g>
<!-- false_5 -->
<g id="node38" class="node">
<title>false_5</title>
<ellipse fill="none" stroke="black" cx="460.68" cy="-2398" rx="37.53" ry="18"/>
<text text-anchor="middle" x="460.68" y="-2392.95" font-family="Times,serif" font-size="14.00">false_5</text>
</g>
<!-- decision_5&#45;&gt;false_5 -->
<g id="edge6" class="edge">
<title>decision_5&#45;&gt;false_5</title>
<path fill="none" stroke="red" d="M384.74,-2475.78C398.84,-2461.52 420.81,-2439.31 437.49,-2422.44"/>
<polygon fill="red" stroke="red" points="439.6,-2425.29 444.14,-2415.72 434.62,-2420.37 439.6,-2425.29"/>
<text text-anchor="middle" x="436.49" y="-2446.45" font-family="Arial" font-size="9.00">False</text>
<text text-anchor="middle" x="436.49" y="-2435.95" font-family="Arial" font-size="9.00">(false)</text>
</g>
<!-- decision_7 -->
<g id="node7" class="node">
<title>decision_7</title>
<polygon fill="lightblue" stroke="black" points="203.68,-2343 88.66,-2325 203.68,-2307 318.69,-2325 203.68,-2343"/>
<text text-anchor="middle" x="203.68" y="-2321.5" font-family="Arial" font-size="10.00">If: len(final_content) &gt; 2000</text>
</g>
<!-- decision_6&#45;&gt;decision_7 -->
<g id="edge8" class="edge">
<title>decision_6&#45;&gt;decision_7</title>
<path fill="none" stroke="black" d="M203.68,-2379.81C203.68,-2372.23 203.68,-2363.1 203.68,-2354.54"/>
<polygon fill="black" stroke="black" points="207.18,-2354.54 203.68,-2344.54 200.18,-2354.54 207.18,-2354.54"/>
</g>
<!-- try_8 -->
<g id="node8" class="node">
<title>try_8</title>
<polygon fill="lightpink" stroke="black" points="232.68,-2270 174.68,-2270 174.68,-2234 232.68,-2234 232.68,-2270"/>
<text text-anchor="middle" x="203.68" y="-2248.5" font-family="Arial" font-size="10.00">Try Block</text>
</g>
<!-- decision_7&#45;&gt;try_8 -->
<g id="edge9" class="edge">
<title>decision_7&#45;&gt;try_8</title>
<path fill="none" stroke="black" d="M203.68,-2306.81C203.68,-2299.23 203.68,-2290.1 203.68,-2281.54"/>
<polygon fill="black" stroke="black" points="207.18,-2281.54 203.68,-2271.54 200.18,-2281.54 207.18,-2281.54"/>
</g>
<!-- decision_9 -->
<g id="node9" class="node">
<title>decision_9</title>
<polygon fill="lightblue" stroke="black" points="203.68,-2197 75.9,-2179 203.68,-2161 331.45,-2179 203.68,-2197"/>
<text text-anchor="middle" x="203.68" y="-2175.5" font-family="Arial" font-size="10.00">If: final_tags or final_note_type</text>
</g>
<!-- try_8&#45;&gt;decision_9 -->
<g id="edge10" class="edge">
<title>try_8&#45;&gt;decision_9</title>
<path fill="none" stroke="black" d="M203.68,-2233.81C203.68,-2226.23 203.68,-2217.1 203.68,-2208.54"/>
<polygon fill="black" stroke="black" points="207.18,-2208.54 203.68,-2198.54 200.18,-2208.54 207.18,-2208.54"/>
</g>
<!-- try_10 -->
<g id="node10" class="node">
<title>try_10</title>
<polygon fill="lightpink" stroke="black" points="232.68,-2124 174.68,-2124 174.68,-2088 232.68,-2088 232.68,-2124"/>
<text text-anchor="middle" x="203.68" y="-2102.5" font-family="Arial" font-size="10.00">Try Block</text>
</g>
<!-- decision_9&#45;&gt;try_10 -->
<g id="edge11" class="edge">
<title>decision_9&#45;&gt;try_10</title>
<path fill="none" stroke="black" d="M203.68,-2160.81C203.68,-2153.23 203.68,-2144.1 203.68,-2135.54"/>
<polygon fill="black" stroke="black" points="207.18,-2135.54 203.68,-2125.54 200.18,-2135.54 207.18,-2135.54"/>
</g>
<!-- decision_11 -->
<g id="node11" class="node">
<title>decision_11</title>
<polygon fill="lightblue" stroke="black" points="203.68,-2051 144.15,-2033 203.68,-2015 263.21,-2033 203.68,-2051"/>
<text text-anchor="middle" x="203.68" y="-2029.5" font-family="Arial" font-size="10.00">If: final_tags</text>
</g>
<!-- try_10&#45;&gt;decision_11 -->
<g id="edge12" class="edge">
<title>try_10&#45;&gt;decision_11</title>
<path fill="none" stroke="black" d="M203.68,-2087.81C203.68,-2080.34 203.68,-2071.37 203.68,-2062.92"/>
<polygon fill="black" stroke="black" points="207.18,-2063.04 203.68,-2053.04 200.18,-2063.04 207.18,-2063.04"/>
</g>
<!-- decision_12 -->
<g id="node12" class="node">
<title>decision_12</title>
<polygon fill="lightblue" stroke="black" points="203.68,-1978 123.74,-1960 203.68,-1942 283.62,-1960 203.68,-1978"/>
<text text-anchor="middle" x="203.68" y="-1956.5" font-family="Arial" font-size="10.00">If: final_note_type</text>
</g>
<!-- decision_11&#45;&gt;decision_12 -->
<g id="edge13" class="edge">
<title>decision_11&#45;&gt;decision_12</title>
<path fill="none" stroke="black" d="M203.68,-2014.81C203.68,-2007.23 203.68,-1998.1 203.68,-1989.54"/>
<polygon fill="black" stroke="black" points="207.18,-1989.54 203.68,-1979.54 200.18,-1989.54 207.18,-1989.54"/>
</g>
<!-- decision_13 -->
<g id="node13" class="node">
<title>decision_13</title>
<polygon fill="lightblue" stroke="black" points="203.68,-1905 114.17,-1887 203.68,-1869 293.18,-1887 203.68,-1905"/>
<text text-anchor="middle" x="203.68" y="-1883.5" font-family="Arial" font-size="10.00">If: update_properties</text>
</g>
<!-- decision_12&#45;&gt;decision_13 -->
<g id="edge14" class="edge">
<title>decision_12&#45;&gt;decision_13</title>
<path fill="none" stroke="black" d="M203.68,-1941.81C203.68,-1934.23 203.68,-1925.1 203.68,-1916.54"/>
<polygon fill="black" stroke="black" points="207.18,-1916.54 203.68,-1906.54 200.18,-1916.54 207.18,-1916.54"/>
</g>
<!-- try_14 -->
<g id="node14" class="node">
<title>try_14</title>
<polygon fill="lightpink" stroke="black" points="232.68,-1832 174.68,-1832 174.68,-1796 232.68,-1796 232.68,-1832"/>
<text text-anchor="middle" x="203.68" y="-1810.5" font-family="Arial" font-size="10.00">Try Block</text>
</g>
<!-- decision_13&#45;&gt;try_14 -->
<g id="edge15" class="edge">
<title>decision_13&#45;&gt;try_14</title>
<path fill="none" stroke="black" d="M203.68,-1868.81C203.68,-1861.23 203.68,-1852.1 203.68,-1843.54"/>
<polygon fill="black" stroke="black" points="207.18,-1843.54 203.68,-1833.54 200.18,-1843.54 207.18,-1843.54"/>
</g>
<!-- decision_15 -->
<g id="node15" class="node">
<title>decision_15</title>
<polygon fill="lightblue" stroke="black" points="203.68,-1759 0,-1741 203.68,-1723 407.35,-1741 203.68,-1759"/>
<text text-anchor="middle" x="203.68" y="-1737.5" font-family="Arial" font-size="10.00">If: enhance_content and &#39;enhanced_note&#39; in locals()</text>
</g>
<!-- try_14&#45;&gt;decision_15 -->
<g id="edge16" class="edge">
<title>try_14&#45;&gt;decision_15</title>
<path fill="none" stroke="black" d="M203.68,-1795.81C203.68,-1788.23 203.68,-1779.1 203.68,-1770.54"/>
<polygon fill="black" stroke="black" points="207.18,-1770.54 203.68,-1760.54 200.18,-1770.54 207.18,-1770.54"/>
</g>
<!-- decision_16 -->
<g id="node16" class="node">
<title>decision_16</title>
<polygon fill="lightblue" stroke="black" points="203.68,-1686 73.99,-1668 203.68,-1650 333.36,-1668 203.68,-1686"/>
<text text-anchor="middle" x="203.68" y="-1664.5" font-family="Arial" font-size="10.00">If: enhanced_note.action_items</text>
</g>
<!-- decision_15&#45;&gt;decision_16 -->
<g id="edge17" class="edge">
<title>decision_15&#45;&gt;decision_16</title>
<path fill="none" stroke="black" d="M203.68,-1722.81C203.68,-1715.23 203.68,-1706.1 203.68,-1697.54"/>
<polygon fill="black" stroke="black" points="207.18,-1697.54 203.68,-1687.54 200.18,-1697.54 207.18,-1697.54"/>
</g>
<!-- call_17 -->
<g id="node17" class="node">
<title>call_17</title>
<polygon fill="lightyellow" stroke="black" points="237.55,-1603.5 169.8,-1603.5 169.8,-1567.5 237.55,-1567.5 237.55,-1603.5"/>
<text text-anchor="middle" x="203.68" y="-1582" font-family="Arial" font-size="10.00">Call: &#39;, &#39;.join</text>
</g>
<!-- decision_16&#45;&gt;call_17 -->
<g id="edge18" class="edge">
<title>decision_16&#45;&gt;call_17</title>
<path fill="none" stroke="black" d="M203.68,-1649.53C203.68,-1639.51 203.68,-1626.68 203.68,-1615.21"/>
<polygon fill="black" stroke="black" points="207.18,-1615.45 203.68,-1605.45 200.18,-1615.45 207.18,-1615.45"/>
<text text-anchor="middle" x="213.05" y="-1623.45" font-family="Arial" font-size="9.00">calls</text>
</g>
<!-- call_18 -->
<g id="node18" class="node">
<title>call_18</title>
<polygon fill="lightyellow" stroke="black" points="244.3,-1521 163.05,-1521 163.05,-1485 244.3,-1485 244.3,-1521"/>
<text text-anchor="middle" x="203.68" y="-1499.5" font-family="Arial" font-size="10.00">Call: NoteType</text>
</g>
<!-- call_17&#45;&gt;call_18 -->
<g id="edge19" class="edge">
<title>call_17&#45;&gt;call_18</title>
<path fill="none" stroke="black" d="M203.68,-1567.03C203.68,-1557.01 203.68,-1544.18 203.68,-1532.71"/>
<polygon fill="black" stroke="black" points="207.18,-1532.95 203.68,-1522.95 200.18,-1532.95 207.18,-1532.95"/>
<text text-anchor="middle" x="213.05" y="-1540.95" font-family="Arial" font-size="9.00">calls</text>
</g>
<!-- call_19 -->
<g id="node19" class="node">
<title>call_19</title>
<polygon fill="lightyellow" stroke="black" points="271.3,-1438.5 136.05,-1438.5 136.05,-1402.5 271.3,-1402.5 271.3,-1438.5"/>
<text text-anchor="middle" x="203.68" y="-1417" font-family="Arial" font-size="10.00">Call: create_properties_dict</text>
</g>
<!-- call_18&#45;&gt;call_19 -->
<g id="edge20" class="edge">
<title>call_18&#45;&gt;call_19</title>
<path fill="none" stroke="black" d="M203.68,-1484.53C203.68,-1474.51 203.68,-1461.68 203.68,-1450.21"/>
<polygon fill="black" stroke="black" points="207.18,-1450.45 203.68,-1440.45 200.18,-1450.45 207.18,-1450.45"/>
<text text-anchor="middle" x="213.05" y="-1458.45" font-family="Arial" font-size="9.00">calls</text>
</g>
<!-- call_20 -->
<g id="node20" class="node">
<title>call_20</title>
<polygon fill="lightyellow" stroke="black" points="279.93,-1356 127.43,-1356 127.43,-1320 279.93,-1320 279.93,-1356"/>
<text text-anchor="middle" x="203.68" y="-1334.5" font-family="Arial" font-size="10.00">Call: ensure_main_page_exists</text>
</g>
<!-- call_19&#45;&gt;call_20 -->
<g id="edge21" class="edge">
<title>call_19&#45;&gt;call_20</title>
<path fill="none" stroke="black" d="M203.68,-1402.03C203.68,-1392.01 203.68,-1379.18 203.68,-1367.71"/>
<polygon fill="black" stroke="black" points="207.18,-1367.95 203.68,-1357.95 200.18,-1367.95 207.18,-1367.95"/>
<text text-anchor="middle" x="213.05" y="-1375.95" font-family="Arial" font-size="9.00">calls</text>
</g>
<!-- call_21 -->
<g id="node21" class="node">
<title>call_21</title>
<polygon fill="lightyellow" stroke="black" points="230.68,-1273.5 176.68,-1273.5 176.68,-1237.5 230.68,-1237.5 230.68,-1273.5"/>
<text text-anchor="middle" x="203.68" y="-1252" font-family="Arial" font-size="10.00">Call: len</text>
</g>
<!-- call_20&#45;&gt;call_21 -->
<g id="edge22" class="edge">
<title>call_20&#45;&gt;call_21</title>
<path fill="none" stroke="black" d="M203.68,-1319.53C203.68,-1309.51 203.68,-1296.68 203.68,-1285.21"/>
<polygon fill="black" stroke="black" points="207.18,-1285.45 203.68,-1275.45 200.18,-1285.45 207.18,-1285.45"/>
<text text-anchor="middle" x="213.05" y="-1293.45" font-family="Arial" font-size="9.00">calls</text>
</g>
<!-- call_22 -->
<g id="node22" class="node">
<title>call_22</title>
<polygon fill="lightyellow" stroke="black" points="230.68,-1191 176.68,-1191 176.68,-1155 230.68,-1155 230.68,-1191"/>
<text text-anchor="middle" x="203.68" y="-1169.5" font-family="Arial" font-size="10.00">Call: list</text>
</g>
<!-- call_21&#45;&gt;call_22 -->
<g id="edge23" class="edge">
<title>call_21&#45;&gt;call_22</title>
<path fill="none" stroke="black" d="M203.68,-1237.03C203.68,-1227.01 203.68,-1214.18 203.68,-1202.71"/>
<polygon fill="black" stroke="black" points="207.18,-1202.95 203.68,-1192.95 200.18,-1202.95 207.18,-1202.95"/>
<text text-anchor="middle" x="213.05" y="-1210.95" font-family="Arial" font-size="9.00">calls</text>
</g>
<!-- call_23 -->
<g id="node23" class="node">
<title>call_23</title>
<polygon fill="lightyellow" stroke="black" points="236.05,-1108.5 171.3,-1108.5 171.3,-1072.5 236.05,-1072.5 236.05,-1108.5"/>
<text text-anchor="middle" x="203.68" y="-1087" font-family="Arial" font-size="10.00">Call: locals</text>
</g>
<!-- call_22&#45;&gt;call_23 -->
<g id="edge24" class="edge">
<title>call_22&#45;&gt;call_23</title>
<path fill="none" stroke="black" d="M203.68,-1154.53C203.68,-1144.51 203.68,-1131.68 203.68,-1120.21"/>
<polygon fill="black" stroke="black" points="207.18,-1120.45 203.68,-1110.45 200.18,-1120.45 207.18,-1120.45"/>
<text text-anchor="middle" x="213.05" y="-1128.45" font-family="Arial" font-size="9.00">calls</text>
</g>
<!-- call_24 -->
<g id="node24" class="node">
<title>call_24</title>
<polygon fill="lightyellow" stroke="black" points="257.8,-1026 149.55,-1026 149.55,-990 257.8,-990 257.8,-1026"/>
<text text-anchor="middle" x="203.68" y="-1004.5" font-family="Arial" font-size="10.00">Call: note_type.lower</text>
</g>
<!-- call_23&#45;&gt;call_24 -->
<g id="edge25" class="edge">
<title>call_23&#45;&gt;call_24</title>
<path fill="none" stroke="black" d="M203.68,-1072.03C203.68,-1062.01 203.68,-1049.18 203.68,-1037.71"/>
<polygon fill="black" stroke="black" points="207.18,-1037.95 203.68,-1027.95 200.18,-1037.95 207.18,-1037.95"/>
<text text-anchor="middle" x="213.05" y="-1045.95" font-family="Arial" font-size="9.00">calls</text>
</g>
<!-- call_25 -->
<g id="node25" class="node">
<title>call_25</title>
<polygon fill="lightyellow" stroke="black" points="281.43,-943.5 125.93,-943.5 125.93,-907.5 281.43,-907.5 281.43,-943.5"/>
<text text-anchor="middle" x="203.68" y="-922" font-family="Arial" font-size="10.00">Call: self._generate_simple_title</text>
</g>
<!-- call_24&#45;&gt;call_25 -->
<g id="edge26" class="edge">
<title>call_24&#45;&gt;call_25</title>
<path fill="none" stroke="black" d="M203.68,-989.53C203.68,-979.51 203.68,-966.68 203.68,-955.21"/>
<polygon fill="black" stroke="black" points="207.18,-955.45 203.68,-945.45 200.18,-955.45 207.18,-955.45"/>
<text text-anchor="middle" x="213.05" y="-963.45" font-family="Arial" font-size="9.00">calls</text>
</g>
<!-- call_26 -->
<g id="node26" class="node">
<title>call_26</title>
<polygon fill="lightyellow" stroke="black" points="264.55,-861 142.8,-861 142.8,-825 264.55,-825 264.55,-861"/>
<text text-anchor="middle" x="203.68" y="-839.5" font-family="Arial" font-size="10.00">Call: self._generate_title</text>
</g>
<!-- call_25&#45;&gt;call_26 -->
<g id="edge27" class="edge">
<title>call_25&#45;&gt;call_26</title>
<path fill="none" stroke="black" d="M203.68,-907.03C203.68,-897.01 203.68,-884.18 203.68,-872.71"/>
<polygon fill="black" stroke="black" points="207.18,-872.95 203.68,-862.95 200.18,-872.95 207.18,-872.95"/>
<text text-anchor="middle" x="213.05" y="-880.95" font-family="Arial" font-size="9.00">calls</text>
</g>
<!-- call_27 -->
<g id="node27" class="node">
<title>call_27</title>
<polygon fill="lightyellow" stroke="black" points="312.18,-778.5 95.18,-778.5 95.18,-742.5 312.18,-742.5 312.18,-778.5"/>
<text text-anchor="middle" x="203.68" y="-757" font-family="Arial" font-size="10.00">Call: self.llm_enhancer.enhance_note_content</text>
</g>
<!-- call_26&#45;&gt;call_27 -->
<g id="edge28" class="edge">
<title>call_26&#45;&gt;call_27</title>
<path fill="none" stroke="black" d="M203.68,-824.53C203.68,-814.51 203.68,-801.68 203.68,-790.21"/>
<polygon fill="black" stroke="black" points="207.18,-790.45 203.68,-780.45 200.18,-790.45 207.18,-790.45"/>
<text text-anchor="middle" x="213.05" y="-798.45" font-family="Arial" font-size="9.00">calls</text>
</g>
<!-- call_28 -->
<g id="node28" class="node">
<title>call_28</title>
<polygon fill="lightyellow" stroke="black" points="257.05,-696 150.3,-696 150.3,-660 257.05,-660 257.05,-696"/>
<text text-anchor="middle" x="203.68" y="-674.5" font-family="Arial" font-size="10.00">Call: self.logger.error</text>
</g>
<!-- call_27&#45;&gt;call_28 -->
<g id="edge29" class="edge">
<title>call_27&#45;&gt;call_28</title>
<path fill="none" stroke="black" d="M203.68,-742.03C203.68,-732.01 203.68,-719.18 203.68,-707.71"/>
<polygon fill="black" stroke="black" points="207.18,-707.95 203.68,-697.95 200.18,-707.95 207.18,-707.95"/>
<text text-anchor="middle" x="213.05" y="-715.95" font-family="Arial" font-size="9.00">calls</text>
</g>
<!-- call_29 -->
<g id="node29" class="node">
<title>call_29</title>
<polygon fill="lightyellow" stroke="black" points="255.18,-613.5 152.18,-613.5 152.18,-577.5 255.18,-577.5 255.18,-613.5"/>
<text text-anchor="middle" x="203.68" y="-592" font-family="Arial" font-size="10.00">Call: self.logger.info</text>
</g>
<!-- call_28&#45;&gt;call_29 -->
<g id="edge30" class="edge">
<title>call_28&#45;&gt;call_29</title>
<path fill="none" stroke="black" d="M203.68,-659.53C203.68,-649.51 203.68,-636.68 203.68,-625.21"/>
<polygon fill="black" stroke="black" points="207.18,-625.45 203.68,-615.45 200.18,-625.45 207.18,-625.45"/>
<text text-anchor="middle" x="213.05" y="-633.45" font-family="Arial" font-size="9.00">calls</text>
</g>
<!-- call_30 -->
<g id="node30" class="node">
<title>call_30</title>
<polygon fill="lightyellow" stroke="black" points="264.18,-531 143.18,-531 143.18,-495 264.18,-495 264.18,-531"/>
<text text-anchor="middle" x="203.68" y="-509.5" font-family="Arial" font-size="10.00">Call: self.logger.warning</text>
</g>
<!-- call_29&#45;&gt;call_30 -->
<g id="edge31" class="edge">
<title>call_29&#45;&gt;call_30</title>
<path fill="none" stroke="black" d="M203.68,-577.03C203.68,-567.01 203.68,-554.18 203.68,-542.71"/>
<polygon fill="black" stroke="black" points="207.18,-542.95 203.68,-532.95 200.18,-542.95 207.18,-542.95"/>
<text text-anchor="middle" x="213.05" y="-550.95" font-family="Arial" font-size="9.00">calls</text>
</g>
<!-- call_31 -->
<g id="node31" class="node">
<title>call_31</title>
<polygon fill="lightyellow" stroke="black" points="289.68,-448.5 117.68,-448.5 117.68,-412.5 289.68,-412.5 289.68,-448.5"/>
<text text-anchor="middle" x="203.68" y="-427" font-family="Arial" font-size="10.00">Call: self.notion_client.pages.create</text>
</g>
<!-- call_30&#45;&gt;call_31 -->
<g id="edge32" class="edge">
<title>call_30&#45;&gt;call_31</title>
<path fill="none" stroke="black" d="M203.68,-494.53C203.68,-484.51 203.68,-471.68 203.68,-460.21"/>
<polygon fill="black" stroke="black" points="207.18,-460.45 203.68,-450.45 200.18,-460.45 207.18,-460.45"/>
<text text-anchor="middle" x="213.05" y="-468.45" font-family="Arial" font-size="9.00">calls</text>
</g>
<!-- call_32 -->
<g id="node32" class="node">
<title>call_32</title>
<polygon fill="lightyellow" stroke="black" points="290.8,-366 116.55,-366 116.55,-330 290.8,-330 290.8,-366"/>
<text text-anchor="middle" x="203.68" y="-344.5" font-family="Arial" font-size="10.00">Call: self.notion_client.pages.update</text>
</g>
<!-- call_31&#45;&gt;call_32 -->
<g id="edge33" class="edge">
<title>call_31&#45;&gt;call_32</title>
<path fill="none" stroke="black" d="M203.68,-412.03C203.68,-402.01 203.68,-389.18 203.68,-377.71"/>
<polygon fill="black" stroke="black" points="207.18,-377.95 203.68,-367.95 200.18,-377.95 207.18,-377.95"/>
<text text-anchor="middle" x="213.05" y="-385.95" font-family="Arial" font-size="9.00">calls</text>
</g>
<!-- call_33 -->
<g id="node33" class="node">
<title>call_33</title>
<polygon fill="lightyellow" stroke="black" points="230.68,-283.5 176.68,-283.5 176.68,-247.5 230.68,-247.5 230.68,-283.5"/>
<text text-anchor="middle" x="203.68" y="-262" font-family="Arial" font-size="10.00">Call: str</text>
</g>
<!-- call_32&#45;&gt;call_33 -->
<g id="edge34" class="edge">
<title>call_32&#45;&gt;call_33</title>
<path fill="none" stroke="black" d="M203.68,-329.53C203.68,-319.51 203.68,-306.68 203.68,-295.21"/>
<polygon fill="black" stroke="black" points="207.18,-295.45 203.68,-285.45 200.18,-295.45 207.18,-295.45"/>
<text text-anchor="middle" x="213.05" y="-303.45" font-family="Arial" font-size="9.00">calls</text>
</g>
<!-- call_34 -->
<g id="node34" class="node">
<title>call_34</title>
<polygon fill="lightyellow" stroke="black" points="273.93,-201 133.43,-201 133.43,-165 273.93,-165 273.93,-201"/>
<text text-anchor="middle" x="203.68" y="-179.5" font-family="Arial" font-size="10.00">Call: update_properties.keys</text>
</g>
<!-- call_33&#45;&gt;call_34 -->
<g id="edge35" class="edge">
<title>call_33&#45;&gt;call_34</title>
<path fill="none" stroke="black" d="M203.68,-247.03C203.68,-237.01 203.68,-224.18 203.68,-212.71"/>
<polygon fill="black" stroke="black" points="207.18,-212.95 203.68,-202.95 200.18,-212.95 207.18,-212.95"/>
<text text-anchor="middle" x="213.05" y="-220.95" font-family="Arial" font-size="9.00">calls</text>
</g>
<!-- call_35 -->
<g id="node35" class="node">
<title>call_35</title>
<polygon fill="lightyellow" stroke="black" points="279.18,-118.5 128.18,-118.5 128.18,-82.5 279.18,-82.5 279.18,-118.5"/>
<text text-anchor="middle" x="203.68" y="-97" font-family="Arial" font-size="10.00">Call: update_table_of_contents</text>
</g>
<!-- call_34&#45;&gt;call_35 -->
<g id="edge36" class="edge">
<title>call_34&#45;&gt;call_35</title>
<path fill="none" stroke="black" d="M203.68,-164.53C203.68,-154.51 203.68,-141.68 203.68,-130.21"/>
<polygon fill="black" stroke="black" points="207.18,-130.45 203.68,-120.45 200.18,-130.45 207.18,-130.45"/>
<text text-anchor="middle" x="213.05" y="-138.45" font-family="Arial" font-size="9.00">calls</text>
</g>
<!-- end_36 -->
<g id="node36" class="node">
<title>end_36</title>
<ellipse fill="lightcoral" stroke="black" cx="203.68" cy="-18" rx="82.68" ry="18"/>
<text text-anchor="middle" x="203.68" y="-14.5" font-family="Arial" font-size="10.00">End: create_enhanced_note</text>
</g>
<!-- call_35&#45;&gt;end_36 -->
<g id="edge37" class="edge">
<title>call_35&#45;&gt;end_36</title>
<path fill="none" stroke="black" d="M203.68,-82.03C203.68,-72.01 203.68,-59.18 203.68,-47.71"/>
<polygon fill="black" stroke="black" points="207.18,-47.95 203.68,-37.95 200.18,-47.95 207.18,-47.95"/>
<text text-anchor="middle" x="217.93" y="-55.95" font-family="Arial" font-size="9.00">returns</text>
</g>
</g>
</svg>
