<?xml version="1.0" encoding="UTF-8" standalone="no"?>
<!DOCTYPE svg PUBLIC "-//W3C//DTD SVG 1.1//EN"
 "http://www.w3.org/Graphics/SVG/1.1/DTD/svg11.dtd">
<!-- Generated by graphviz version 12.2.1 (20241206.2353)
 -->
<!-- Pages: 1 -->
<svg width="244pt" height="432pt"
 viewBox="0.00 0.00 244.12 432.00" xmlns="http://www.w3.org/2000/svg" xmlns:xlink="http://www.w3.org/1999/xlink">
<g id="graph0" class="graph" transform="scale(0.814326 0.814326) rotate(0) translate(4 526.5)">
<polygon fill="white" stroke="none" points="-4,4 -4,-526.5 295.78,-526.5 295.78,4 -4,4"/>
<!-- start_1 -->
<g id="node1" class="node">
<title>start_1</title>
<ellipse fill="lightgreen" stroke="black" cx="164.25" cy="-504.5" rx="70.51" ry="18"/>
<text text-anchor="middle" x="164.25" y="-501" font-family="Arial" font-size="10.00">Start: demo_function_2</text>
</g>
<!-- decision_2 -->
<g id="node2" class="node">
<title>decision_2</title>
<polygon fill="lightblue" stroke="black" points="164.25,-449.5 121.31,-431.5 164.25,-413.5 207.2,-431.5 164.25,-449.5"/>
<text text-anchor="middle" x="164.25" y="-428" font-family="Arial" font-size="10.00">If: x &gt; 0</text>
</g>
<!-- start_1&#45;&gt;decision_2 -->
<g id="edge1" class="edge">
<title>start_1&#45;&gt;decision_2</title>
<path fill="none" stroke="black" d="M164.25,-486.31C164.25,-478.84 164.25,-469.87 164.25,-461.42"/>
<polygon fill="black" stroke="black" points="167.75,-461.54 164.25,-451.54 160.75,-461.54 167.75,-461.54"/>
</g>
<!-- loop_3 -->
<g id="node3" class="node">
<title>loop_3</title>
<polygon fill="lightcyan" stroke="black" points="111.88,-356.5 24.63,-356.5 24.63,-320.5 111.88,-320.5 111.88,-356.5"/>
<text text-anchor="middle" x="68.25" y="-335" font-family="Arial" font-size="10.00">For: i in range(x)</text>
</g>
<!-- decision_2&#45;&gt;loop_3 -->
<g id="edge4" class="edge">
<title>decision_2&#45;&gt;loop_3</title>
<path fill="none" stroke="black" d="M151.7,-418.6C137.25,-404.9 113.1,-382.01 94.49,-364.37"/>
<polygon fill="black" stroke="black" points="97.14,-362.06 87.48,-357.72 92.33,-367.14 97.14,-362.06"/>
</g>
<!-- true_2 -->
<g id="node8" class="node">
<title>true_2</title>
<ellipse fill="none" stroke="black" cx="164.25" cy="-338.5" rx="34.46" ry="18"/>
<text text-anchor="middle" x="164.25" y="-333.45" font-family="Times,serif" font-size="14.00">true_2</text>
</g>
<!-- decision_2&#45;&gt;true_2 -->
<g id="edge2" class="edge">
<title>decision_2&#45;&gt;true_2</title>
<path fill="none" stroke="green" d="M164.25,-413.38C164.25,-400.63 164.25,-382.92 164.25,-368.03"/>
<polygon fill="green" stroke="green" points="167.75,-368.36 164.25,-358.36 160.75,-368.36 167.75,-368.36"/>
<text text-anchor="middle" x="175.13" y="-386.95" font-family="Arial" font-size="9.00">True</text>
<text text-anchor="middle" x="175.13" y="-376.45" font-family="Arial" font-size="9.00">(true)</text>
</g>
<!-- false_2 -->
<g id="node9" class="node">
<title>false_2</title>
<ellipse fill="none" stroke="black" cx="254.25" cy="-338.5" rx="37.53" ry="18"/>
<text text-anchor="middle" x="254.25" y="-333.45" font-family="Times,serif" font-size="14.00">false_2</text>
</g>
<!-- decision_2&#45;&gt;false_2 -->
<g id="edge3" class="edge">
<title>decision_2&#45;&gt;false_2</title>
<path fill="none" stroke="red" d="M176.39,-418.23C190.24,-404.22 213.24,-380.97 230.65,-363.36"/>
<polygon fill="red" stroke="red" points="233.08,-365.88 237.63,-356.31 228.11,-360.96 233.08,-365.88"/>
<text text-anchor="middle" x="230.06" y="-386.95" font-family="Arial" font-size="9.00">False</text>
<text text-anchor="middle" x="230.06" y="-376.45" font-family="Arial" font-size="9.00">(false)</text>
</g>
<!-- decision_4 -->
<g id="node4" class="node">
<title>decision_4</title>
<polygon fill="lightblue" stroke="black" points="68.25,-283.5 5.53,-265.5 68.25,-247.5 130.97,-265.5 68.25,-283.5"/>
<text text-anchor="middle" x="68.25" y="-262" font-family="Arial" font-size="10.00">If: i % 2 == 0</text>
</g>
<!-- loop_3&#45;&gt;decision_4 -->
<g id="edge5" class="edge">
<title>loop_3&#45;&gt;decision_4</title>
<path fill="none" stroke="black" d="M68.25,-320.31C68.25,-312.73 68.25,-303.6 68.25,-295.04"/>
<polygon fill="black" stroke="black" points="71.75,-295.04 68.25,-285.04 64.75,-295.04 71.75,-295.04"/>
</g>
<!-- call_5 -->
<g id="node5" class="node">
<title>call_5</title>
<polygon fill="lightyellow" stroke="black" points="97.25,-201 39.25,-201 39.25,-165 97.25,-165 97.25,-201"/>
<text text-anchor="middle" x="68.25" y="-179.5" font-family="Arial" font-size="10.00">Call: print</text>
</g>
<!-- decision_4&#45;&gt;call_5 -->
<g id="edge6" class="edge">
<title>decision_4&#45;&gt;call_5</title>
<path fill="none" stroke="black" d="M68.25,-247.03C68.25,-237.01 68.25,-224.18 68.25,-212.71"/>
<polygon fill="black" stroke="black" points="71.75,-212.95 68.25,-202.95 64.75,-212.95 71.75,-212.95"/>
<text text-anchor="middle" x="77.63" y="-220.95" font-family="Arial" font-size="9.00">calls</text>
</g>
<!-- call_6 -->
<g id="node6" class="node">
<title>call_6</title>
<polygon fill="lightyellow" stroke="black" points="99.88,-118.5 36.63,-118.5 36.63,-82.5 99.88,-82.5 99.88,-118.5"/>
<text text-anchor="middle" x="68.25" y="-97" font-family="Arial" font-size="10.00">Call: range</text>
</g>
<!-- call_5&#45;&gt;call_6 -->
<g id="edge7" class="edge">
<title>call_5&#45;&gt;call_6</title>
<path fill="none" stroke="black" d="M68.25,-164.53C68.25,-154.51 68.25,-141.68 68.25,-130.21"/>
<polygon fill="black" stroke="black" points="71.75,-130.45 68.25,-120.45 64.75,-130.45 71.75,-130.45"/>
<text text-anchor="middle" x="77.63" y="-138.45" font-family="Arial" font-size="9.00">calls</text>
</g>
<!-- end_7 -->
<g id="node7" class="node">
<title>end_7</title>
<ellipse fill="lightcoral" stroke="black" cx="68.25" cy="-18" rx="68.25" ry="18"/>
<text text-anchor="middle" x="68.25" y="-14.5" font-family="Arial" font-size="10.00">End: demo_function_2</text>
</g>
<!-- call_6&#45;&gt;end_7 -->
<g id="edge8" class="edge">
<title>call_6&#45;&gt;end_7</title>
<path fill="none" stroke="black" d="M68.25,-82.03C68.25,-72.01 68.25,-59.18 68.25,-47.71"/>
<polygon fill="black" stroke="black" points="71.75,-47.95 68.25,-37.95 64.75,-47.95 71.75,-47.95"/>
<text text-anchor="middle" x="82.5" y="-55.95" font-family="Arial" font-size="9.00">returns</text>
</g>
</g>
</svg>
