<?xml version="1.0" encoding="UTF-8" standalone="no"?>
<!DOCTYPE svg PUBLIC "-//W3C//DTD SVG 1.1//EN"
 "http://www.w3.org/Graphics/SVG/1.1/DTD/svg11.dtd">
<!-- Generated by graphviz version 12.2.1 (20241206.2353)
 -->
<!-- Pages: 1 -->
<svg width="236pt" height="432pt"
 viewBox="0.00 0.00 236.14 432.00" xmlns="http://www.w3.org/2000/svg" xmlns:xlink="http://www.w3.org/1999/xlink">
<g id="graph0" class="graph" transform="scale(0.829175 0.829175) rotate(0) translate(4 517)">
<polygon fill="white" stroke="none" points="-4,4 -4,-517 280.78,-517 280.78,4 -4,4"/>
<!-- start_1 -->
<g id="node1" class="node">
<title>start_1</title>
<ellipse fill="lightgreen" stroke="black" cx="149.25" cy="-495" rx="70.51" ry="18"/>
<text text-anchor="middle" x="149.25" y="-491.5" font-family="Arial" font-size="10.00">Start: demo_function_3</text>
</g>
<!-- try_2 -->
<g id="node2" class="node">
<title>try_2</title>
<polygon fill="lightpink" stroke="black" points="178.25,-440 120.25,-440 120.25,-404 178.25,-404 178.25,-440"/>
<text text-anchor="middle" x="149.25" y="-418.5" font-family="Arial" font-size="10.00">Try Block</text>
</g>
<!-- start_1&#45;&gt;try_2 -->
<g id="edge1" class="edge">
<title>start_1&#45;&gt;try_2</title>
<path fill="none" stroke="black" d="M149.25,-476.81C149.25,-469.23 149.25,-460.1 149.25,-451.54"/>
<polygon fill="black" stroke="black" points="152.75,-451.54 149.25,-441.54 145.75,-451.54 152.75,-451.54"/>
</g>
<!-- loop_3 -->
<g id="node3" class="node">
<title>loop_3</title>
<polygon fill="lightcyan" stroke="black" points="192.88,-367 105.63,-367 105.63,-331 192.88,-331 192.88,-367"/>
<text text-anchor="middle" x="149.25" y="-345.5" font-family="Arial" font-size="10.00">For: item in data</text>
</g>
<!-- try_2&#45;&gt;loop_3 -->
<g id="edge2" class="edge">
<title>try_2&#45;&gt;loop_3</title>
<path fill="none" stroke="black" d="M149.25,-403.81C149.25,-396.23 149.25,-387.1 149.25,-378.54"/>
<polygon fill="black" stroke="black" points="152.75,-378.54 149.25,-368.54 145.75,-378.54 152.75,-378.54"/>
</g>
<!-- decision_4 -->
<g id="node4" class="node">
<title>decision_4</title>
<polygon fill="lightblue" stroke="black" points="149.25,-294 94.82,-276 149.25,-258 203.68,-276 149.25,-294"/>
<text text-anchor="middle" x="149.25" y="-272.5" font-family="Arial" font-size="10.00">If: item &gt; 0</text>
</g>
<!-- loop_3&#45;&gt;decision_4 -->
<g id="edge3" class="edge">
<title>loop_3&#45;&gt;decision_4</title>
<path fill="none" stroke="black" d="M149.25,-330.81C149.25,-323.34 149.25,-314.37 149.25,-305.92"/>
<polygon fill="black" stroke="black" points="152.75,-306.04 149.25,-296.04 145.75,-306.04 152.75,-306.04"/>
</g>
<!-- call_5 -->
<g id="node5" class="node">
<title>call_5</title>
<polygon fill="lightyellow" stroke="black" points="97.25,-201 39.25,-201 39.25,-165 97.25,-165 97.25,-201"/>
<text text-anchor="middle" x="68.25" y="-179.5" font-family="Arial" font-size="10.00">Call: print</text>
</g>
<!-- decision_4&#45;&gt;call_5 -->
<g id="edge6" class="edge">
<title>decision_4&#45;&gt;call_5</title>
<path fill="none" stroke="black" d="M137.3,-261.57C125.16,-247.93 106.05,-226.47 91.01,-209.57"/>
<polygon fill="black" stroke="black" points="93.85,-207.49 84.58,-202.35 88.62,-212.14 93.85,-207.49"/>
<text text-anchor="middle" x="125.38" y="-226.2" font-family="Arial" font-size="9.00">calls</text>
</g>
<!-- true_4 -->
<g id="node8" class="node">
<title>true_4</title>
<ellipse fill="none" stroke="black" cx="149.25" cy="-183" rx="34.46" ry="18"/>
<text text-anchor="middle" x="149.25" y="-177.95" font-family="Times,serif" font-size="14.00">true_4</text>
</g>
<!-- decision_4&#45;&gt;true_4 -->
<g id="edge4" class="edge">
<title>decision_4&#45;&gt;true_4</title>
<path fill="none" stroke="green" d="M149.25,-257.88C149.25,-245.13 149.25,-227.42 149.25,-212.53"/>
<polygon fill="green" stroke="green" points="152.75,-212.86 149.25,-202.86 145.75,-212.86 152.75,-212.86"/>
<text text-anchor="middle" x="160.13" y="-231.45" font-family="Arial" font-size="9.00">True</text>
<text text-anchor="middle" x="160.13" y="-220.95" font-family="Arial" font-size="9.00">(true)</text>
</g>
<!-- false_4 -->
<g id="node9" class="node">
<title>false_4</title>
<ellipse fill="none" stroke="black" cx="239.25" cy="-183" rx="37.53" ry="18"/>
<text text-anchor="middle" x="239.25" y="-177.95" font-family="Times,serif" font-size="14.00">false_4</text>
</g>
<!-- decision_4&#45;&gt;false_4 -->
<g id="edge5" class="edge">
<title>decision_4&#45;&gt;false_4</title>
<path fill="none" stroke="red" d="M162.15,-261.96C176.1,-247.86 198.64,-225.06 215.76,-207.76"/>
<polygon fill="red" stroke="red" points="218.05,-210.41 222.6,-200.84 213.08,-205.49 218.05,-210.41"/>
<text text-anchor="middle" x="215.06" y="-231.45" font-family="Arial" font-size="9.00">False</text>
<text text-anchor="middle" x="215.06" y="-220.95" font-family="Arial" font-size="9.00">(false)</text>
</g>
<!-- call_6 -->
<g id="node6" class="node">
<title>call_6</title>
<polygon fill="lightyellow" stroke="black" points="117.13,-118.5 19.38,-118.5 19.38,-82.5 117.13,-82.5 117.13,-118.5"/>
<text text-anchor="middle" x="68.25" y="-97" font-family="Arial" font-size="10.00">Call: result.append</text>
</g>
<!-- call_5&#45;&gt;call_6 -->
<g id="edge7" class="edge">
<title>call_5&#45;&gt;call_6</title>
<path fill="none" stroke="black" d="M68.25,-164.53C68.25,-154.51 68.25,-141.68 68.25,-130.21"/>
<polygon fill="black" stroke="black" points="71.75,-130.45 68.25,-120.45 64.75,-130.45 71.75,-130.45"/>
<text text-anchor="middle" x="77.63" y="-138.45" font-family="Arial" font-size="9.00">calls</text>
</g>
<!-- end_7 -->
<g id="node7" class="node">
<title>end_7</title>
<ellipse fill="lightcoral" stroke="black" cx="68.25" cy="-18" rx="68.25" ry="18"/>
<text text-anchor="middle" x="68.25" y="-14.5" font-family="Arial" font-size="10.00">End: demo_function_3</text>
</g>
<!-- call_6&#45;&gt;end_7 -->
<g id="edge8" class="edge">
<title>call_6&#45;&gt;end_7</title>
<path fill="none" stroke="black" d="M68.25,-82.03C68.25,-72.01 68.25,-59.18 68.25,-47.71"/>
<polygon fill="black" stroke="black" points="71.75,-47.95 68.25,-37.95 64.75,-47.95 71.75,-47.95"/>
<text text-anchor="middle" x="82.5" y="-55.95" font-family="Arial" font-size="9.00">returns</text>
</g>
</g>
</svg>
